<svg width="800" height="600" viewBox="0 0 800 600" xmlns="http://www.w3.org/2000/svg">
<defs>
<linearGradient id="bg-gradient" x1="0%" y1="0%" x2="100%" y2="100%">
<stop offset="0%" astop-color="#1976D2"/>
<stop offset="100%" stop-color="#0D47A1"/>
</linearGradient>
</defs>

<rect width="800" height="600" fill="url(#bg-gradient)"/>

<!-- 低多边形图案 -->
<polygon points="0,0 200,50 150,200 0,150" fill="#2196F3" opacity="0.4"/>
<polygon points="150,200 200,50 350,100 300,250" fill="#1565C0" opacity="0.5"/>
<polygon points="300,250 350,100 500,150 450,300" fill="#0D47A1" opacity="0.6"/>
<polygon points="450,300 500,150 650,200 600,350" fill="#1976D2" opacity="0.7"/>
<polygon points="600,350 650,200 800,250 800,400" fill="#1565C0" opacity="0.5"/>

<polygon points="0,150 150,200 100,350 0,300" fill="#0D47A1" opacity="0.6"/>
<polygon points="100,350 300,250 250,400 50,500" fill="#1976D2" opacity="0.5"/>
<polygon points="250,400 450,300 400,450 200,550" fill="#2196F3" opacity="0.4"/>
<polygon points="400,450 600,350 550,500 350,600" fill="#0D47A1" opacity="0.7"/>
<polygon points="550,500 800,400 800,600 500,600" fill="#1565C0" opacity="0.6"/>

<!-- 亮点效果 -->
<circle cx="100" cy="100" r="3" fill="#BBDEFB" opacity="0.7"/>
<circle cx="300" cy="150" r="2" fill="#BBDEFB" opacity="0.6"/>
<circle cx="500" cy="200" r="4" fill="#BBDEFB" opacity="0.8"/>
<circle cx="700" cy="250" r="3" fill="#BBDEFB" opacity="0.7"/>
<circle cx="200" cy="300" r="2" fill="#BBDEFB" opacity="0.6"/>
<circle cx="400" cy="350" r="3" fill="#BBDEFB" opacity="0.7"/>
<circle cx="600" cy="400" r="2" fill="#BBDEFB" opacity="0.6"/>
<circle cx="300" cy="450" r="4" fill="#BBDEFB" opacity="0.8"/>
<circle cx="500" cy="500" r="3" fill="#BBDEFB" opacity="0.7"/>
</svg>
