<svg width="390" height="844" viewBox="0 0 390 844" xmlns="http://www.w3.org/2000/svg">
<defs>
<linearGradient id="bg-gradient-mobile" x1="0%" y1="0%" x2="100%" y2="100%">
<stop offset="0%" stop-color="#1976D2"/>
<stop offset="100%" stop-color="#0D47A1"/>
</linearGradient>
</defs>

<rect width="390" height="844" fill="url(#bg-gradient-mobile)"/>

<!-- 低多边形图案 - 适应移动端垂直布局 -->
<polygon points="0,0 150,80 100,200 0,150" fill="#2196F3" opacity="0.4"/>
<polygon points="100,200 200,100 300,200 200,300" fill="#1565C0" opacity="0.5"/>
<polygon points="200,300 300,200 390,250 390,400" fill="#0D47A1" opacity="0.6"/>

<polygon points="0,300 100,400 50,500 0,450" fill="#1976D2" opacity="0.5"/>
<polygon points="50,500 150,450 200,600 100,650" fill="#0D47A1" opacity="0.6"/>
<polygon points="200,600 300,550 390,650 390,800" fill="#1565C0" opacity="0.5"/>

<!-- 更大的亮点效果，适应移动端 -->
<circle cx="50" cy="150" r="4" fill="#BBDEFB" opacity="0.8"/>
<circle cx="150" cy="250" r="3" fill="#BBDEFB" opacity="0.7"/>
<circle cx="250" cy="350" r="5" fill="#BBDEFB" opacity="0.8"/>
<circle cx="350" cy="450" r="4" fill="#BBDEFB" opacity="0.7"/>
<circle cx="100" cy="550" r="3" fill="#BBDEFB" opacity="0.6"/>
<circle cx="200" cy="650" r="4" fill="#BBDEFB" opacity="0.8"/>
<circle cx="300" cy="750" r="3" fill="#BBDEFB" opacity="0.7"/>

<!-- 添加一些小亮点增加层次感 -->
<circle cx="75" cy="200" r="2" fill="#BBDEFB" opacity="0.5"/>
<circle cx="175" cy="300" r="2" fill="#BBDEFB" opacity="0.6"/>
<circle cx="275" cy="400" r="2" fill="#BBDEFB" opacity="0.5"/>
<circle cx="325" cy="500" r="2" fill="#BBDEFB" opacity="0.6"/>
</svg>